<svg xmlns="http://www.w3.org/2000/svg" width="800" height="800" viewBox="0 0 32 32"><path d="M5.344 10.688q0 2.912 1.44 5.344t3.936 3.84q.512.736 1.056 1.344l-.032.064q-.032.064 0 .064V25.6q0 .896.608 1.536t1.504.608h4.288q.864 0 1.504-.608t.608-1.536v-4.32q0-.032-.032-.064.544-.608 1.088-1.344 2.432-1.376 3.904-3.84t1.472-5.344-1.44-5.344-3.904-3.904T16 0t-5.344 1.44-3.904 3.904-1.408 5.344m8.512 20.256q0 .448.32.768t.768.288h2.112q.448 0 .768-.288t.32-.768-.32-.768-.768-.32h-2.112q-.448 0-.768.32t-.32.768"/></svg>